<?xml version="1.0" encoding="iso-8859-1"?>
<!-- Generator: Adobe Illustrator 19.0.0, SVG Export Plug-In . SVG Version: 6.00 Build 0)  -->
<svg version="1.1" id="Capa_1" xmlns="http://www.w3.org/2000/svg" xmlns:xlink="http://www.w3.org/1999/xlink" x="0px" y="0px"
	 viewBox="0 0 56.48 56.48" style="enable-background:new 0 0 56.48 56.48;" xml:space="preserve">
<g>
	<g>
		<path d="M35.053,26.252c-0.584-0.001-0.969,0.407-0.845,0.898c0.097,0.386,0.582,0.618,1.082,0.521
			c0.415-0.082,0.632-0.378,0.583-0.796C35.83,26.502,35.502,26.252,35.053,26.252z"/>
	</g>
</g>
<g>
	<g>
		<path d="M44.948,24.544c-0.442-0.172-0.871-0.138-1.247,0.141c-0.384,0.284-0.643,0.659-0.635,1.216
			c0.657-0.404,1.276-0.783,1.892-1.167C45.045,24.68,45.102,24.606,44.948,24.544z"/>
	</g>
</g>
<g>
	<g>
		<path d="M55.026,9.939H1.454C0.65,9.939,0,10.59,0,11.393v33.695c0,0.803,0.65,1.454,1.454,1.454h53.572
			c0.804,0,1.454-0.651,1.454-1.454V11.393C56.48,10.591,55.83,9.939,55.026,9.939z M41.621,24.739
			c0.43-0.902,1.104-1.494,2.069-1.749c0.25-0.066,0.507-0.051,0.772-0.063c1.164-0.028,1.99,0.553,2.604,1.5
			c0.123,0.189,0.113,0.336-0.109,0.474c-1.049,0.646-2.084,1.315-3.135,1.957c-0.247,0.151-0.182,0.204,0.014,0.313
			c0.565,0.316,1.104,0.172,1.641-0.075c0.074-0.033,0.144-0.076,0.214-0.118c0.396-0.231,0.394-0.23,0.637,0.15
			c0.164,0.256,0.332,0.51,0.504,0.761c0.103,0.148,0.118,0.252-0.06,0.374c-1.219,0.83-2.74,1.045-4.051,0.222
			C41.512,27.723,41.008,26.026,41.621,24.739z M38.719,21.476c0-0.173,0.058-0.232,0.231-0.229
			c0.438,0.011,0.879,0.014,1.317-0.001c0.211-0.007,0.275,0.052,0.273,0.27c-0.011,1.197-0.005,2.394-0.005,3.59
			c0,1.187-0.006,2.373,0.005,3.56c0.002,0.215-0.057,0.282-0.271,0.275c-0.438-0.014-0.879-0.01-1.318,0
			c-0.168,0.004-0.234-0.045-0.234-0.225C38.723,26.304,38.723,23.89,38.719,21.476z M33.016,25.664
			c0.654-0.655,1.92-0.897,2.813-0.229c0.122-0.598-0.116-0.957-0.708-1.056c-0.57-0.096-1.091,0.092-1.607,0.294
			c-0.104,0.041-0.203,0.087-0.357,0.152c0.109-0.519,0.209-0.976,0.301-1.435c0.021-0.106,0.04-0.183,0.172-0.213
			c0.81-0.184,1.619-0.352,2.453-0.174c0.982,0.21,1.514,0.859,1.516,1.863c0.004,1.248-0.012,2.497,0.011,3.745
			c0.005,0.299-0.108,0.339-0.353,0.323c-0.297-0.021-0.595-0.03-0.891-0.021c-0.25,0.009-0.477,0.021-0.428-0.341
			c-1.404,0.626-2.479,0.48-3.102-0.4C32.295,27.401,32.371,26.312,33.016,25.664z M22.386,23.137
			c0.409,0.009,0.819,0.017,1.229-0.003c0.232-0.011,0.317,0.059,0.285,0.289c-0.016,0.108-0.003,0.219-0.003,0.417
			c0.489-0.656,1.074-0.896,1.793-0.846c0.164,0.011,0.242,0.028,0.172,0.227c-0.165,0.472-0.31,0.951-0.456,1.429
			c-0.042,0.141-0.099,0.175-0.257,0.161c-0.712-0.058-1.129,0.297-1.204,1.002c-0.099,0.929-0.035,1.861-0.038,2.792
			c-0.001,0.265-0.077,0.328-0.327,0.313c-0.398-0.021-0.799-0.014-1.198-0.002c-0.181,0.007-0.25-0.036-0.249-0.233
			c0.005-1.772,0.006-3.544-0.001-5.314C22.131,23.164,22.213,23.133,22.386,23.137z M5.398,27.292
			c0.011-0.027,0.022-0.055,0.034-0.083c0.412,0.149,0.827,0.293,1.235,0.453c0.129,0.05,0.073,0.189,0.1,0.354
			C6.285,27.76,5.842,27.526,5.398,27.292z M10.298,34.318c-0.518-0.626-1.019-1.27-1.453-1.958
			c-0.044-0.069-0.801-1.376-0.801-1.431c-0.018-0.015-0.734-1.621-0.725-1.658c-0.259-0.779-0.436-1.579-0.457-2.398
			c-0.031-1.192,0.239-2.297,1.189-3.107c0.675-0.576,1.5-0.692,2.361-0.605c0.805,0.082,1.544,0.358,2.238,0.765
			c0.019,0.008,0.037,0.017,0.056,0.024c1.028,0.582,3.039,2.605,3.039,2.605s-1.693-1.025-2.315-1.333
			c-0.16-0.079-1.359-0.64-1.641-0.728c-0.828-0.259-1.662-0.431-2.506-0.086c-0.582,0.239-0.941,0.694-1.115,1.289
			c-0.251,0.853-0.115,1.699,0.071,2.54c0.087,0.387,0.156,0.83,0.597,2.077l0.002,0.002c0.442,1.057,0.872,2.119,1.394,3.141
			c0.291,0.57,0.589,1.139,0.921,1.778C10.775,34.945,10.546,34.617,10.298,34.318z M18.206,28.244
			c-0.16,1.26-1.029,2.057-2.391,2.258c-1.306,0.193-2.567-0.053-3.817-0.387c-1.077-0.287-2.11-0.701-3.144-1.119
			c-0.102-0.042-0.192-0.097-0.242-0.158c-0.108-0.139-0.125-0.479-0.125-0.479l-0.006-0.046c0,0,1.738,0.424,2.498,0.623
			c1.208,0.315,2.426,0.586,3.686,0.57c0.439-0.007,0.878-0.053,1.302-0.183c0.841-0.255,1.258-0.97,1.067-1.832
			c-0.166-0.751-0.593-1.361-1.065-1.944c-1.479-1.821-3.389-2.891-5.701-3.239c-1.811-0.273-3.437,0.234-4.948,1.21
			c-0.83,0.536-1.551,1.199-2.242,1.897c-0.02,0.017-0.048,0.051-0.059,0.046C2.964,25.437,3,25.401,3.016,25.37
			c1.33-2.02,3.085-3.445,5.509-3.933c1.712-0.344,3.332-0.023,4.894,0.692c1.831,0.84,3.283,2.103,4.256,3.879
			C18.051,26.7,18.307,27.445,18.206,28.244z M25.488,33.929c-0.751,0.681-1.707,0.654-2.582-0.11c0,0.422-0.007,0.788,0.003,1.153
			c0.004,0.158-0.043,0.205-0.205,0.211c-0.632,0.02-0.631,0.025-0.631-0.615c0-1.249,0.01-2.497-0.006-3.746
			c-0.003-0.262,0.074-0.331,0.323-0.328c0.483,0.007,0.483-0.006,0.527,0.521c0.471-0.543,1.045-0.696,1.697-0.558
			c0.456,0.099,0.828,0.335,1.104,0.72C26.319,32.013,26.215,33.273,25.488,33.929z M26.289,24.971
			c0.402-1.229,1.583-2.06,3.131-2.063c0.987,0.026,1.853,0.586,2.451,1.593c0.104,0.171,0.073,0.254-0.1,0.36
			c-1.061,0.654-2.112,1.323-3.167,1.988c-0.075,0.048-0.205,0.072-0.199,0.168c0.006,0.105,0.135,0.135,0.227,0.175
			c0.706,0.309,1.346,0.111,1.932-0.295c0.22-0.153,0.304-0.13,0.429,0.082c0.197,0.333,0.42,0.651,0.632,0.977
			c0.059,0.09,0.116,0.169-0.012,0.256c-1.283,0.856-2.793,1.188-4.235,0.189C26.284,27.648,25.862,26.276,26.289,24.971z
			 M29.508,34.344c-0.05-0.008-0.103-0.006-0.151,0c-0.274,0.028-0.487-0.006-0.343-0.435c-0.899,0.613-1.662,0.622-2.213,0.079
			c-0.451-0.443-0.534-1.18-0.193-1.723c0.412-0.654,1.094-0.742,2.273-0.295c0.094-0.551-0.132-0.862-0.672-0.928
			c-0.352-0.041-0.691,0.012-1.026,0.119c-0.103,0.032-0.202,0.098-0.353,0.064c0.047-0.187,0.098-0.367,0.138-0.553
			c0.025-0.112,0.109-0.144,0.2-0.16c0.533-0.098,1.064-0.191,1.61-0.075c0.623,0.133,0.996,0.569,0.999,1.209
			c0.004,0.808-0.007,1.616,0.006,2.423C29.785,34.289,29.723,34.375,29.508,34.344z M33.682,30.984
			c-0.547,1.277-1.104,2.551-1.635,3.834c-0.115,0.279-0.248,0.388-0.558,0.37c-0.522-0.031-0.522-0.009-0.308-0.479
			c0.412-0.893,0.41-0.891-0.039-1.785c-0.396-0.785-0.778-1.572-1.185-2.394c0.89-0.078,0.89-0.078,1.23,0.678
			c0.259,0.577,0.515,1.156,0.782,1.761c0.148-0.211,0.207-0.438,0.295-0.647c0.203-0.491,0.414-0.979,0.588-1.481
			c0.095-0.271,0.236-0.354,0.516-0.334C33.879,30.539,33.881,30.523,33.682,30.984z M39.191,34.349
			c-0.551-0.004-0.549,0.007-0.551-0.551c-0.002-0.646,0.002-1.291-0.01-1.936c-0.006-0.385-0.174-0.62-0.453-0.68
			c-0.332-0.071-0.627,0.095-0.791,0.438c-0.08,0.17-0.11,0.349-0.11,0.535c-0.001,0.635-0.011,1.271-0.001,1.903
			c0.003,0.199-0.029,0.291-0.262,0.289c-0.567-0.006-0.567,0.007-0.567-0.566c0-0.645,0.002-1.29-0.001-1.936
			c-0.001-0.383-0.154-0.606-0.451-0.67c-0.311-0.066-0.598,0.08-0.758,0.388c-0.127,0.243-0.154,0.507-0.155,0.774
			c-0.003,0.572-0.009,1.146,0.003,1.719c0.006,0.203-0.035,0.287-0.263,0.287c-0.552,0.002-0.552,0.016-0.552-0.539
			c0-1.004,0.007-2.008-0.006-3.01c-0.004-0.224,0.043-0.334,0.283-0.291c0.029,0.006,0.062,0.004,0.092,0
			c0.271-0.027,0.521-0.023,0.447,0.441c0.641-0.77,1.696-0.678,2.098,0.07c0.328-0.512,0.795-0.678,1.371-0.596
			c0.373,0.053,0.612,0.258,0.752,0.596c0.119,0.289,0.154,0.595,0.156,0.901c0.004,0.718-0.008,1.435,0.006,2.15
			C39.473,34.291,39.403,34.349,39.191,34.349z M43.555,31.572c-0.758,0.484-1.508,0.98-2.273,1.45
			c-0.253,0.155-0.189,0.25-0.012,0.394c0.459,0.367,1.117,0.354,1.627-0.096c0.229-0.201,0.341-0.166,0.527,0.033
			c0.284,0.309,0.308,0.305-0.024,0.562c-0.736,0.567-1.55,0.685-2.388,0.277c-0.762-0.37-1.112-1.025-1.088-1.871
			c0.031-1.099,0.896-1.896,2.129-1.894c0.627-0.014,1.142,0.358,1.586,0.875C43.775,31.46,43.662,31.502,43.555,31.572z
			 M47.452,34.19c0.002,0.098-0.036,0.155-0.144,0.149c-0.03-0.002-0.062,0.002-0.092,0.004c-0.609,0.027-0.609,0.027-0.609-0.576
			c0-0.603,0.001-1.207,0-1.811c0-0.514-0.155-0.742-0.532-0.791c-0.46-0.057-0.856,0.217-0.955,0.668
			c-0.028,0.129-0.034,0.264-0.034,0.396c-0.004,0.623-0.009,1.248,0.002,1.871c0.004,0.186-0.043,0.246-0.238,0.246
			c-0.6,0.004-0.6,0.015-0.6-0.594c0-0.981,0.008-1.964-0.005-2.947c-0.003-0.229,0.04-0.353,0.295-0.311
			c0.04,0.008,0.083,0.006,0.123,0c0.315-0.049,0.509,0.031,0.418,0.436c0.293-0.325,0.618-0.483,1.015-0.521
			c0.703-0.066,1.215,0.287,1.307,0.989C47.52,32.325,47.432,33.258,47.452,34.19z M50.049,33.898
			c-0.063,0.48-0.058,0.48-0.551,0.478c-0.758-0.006-1.171-0.396-1.215-1.163c-0.018-0.307-0.002-0.613-0.002-0.922
			c-0.002,0-0.004,0-0.005,0c0-0.307,0-0.613,0-0.92c0-0.094,0.011-0.197-0.134-0.182c-0.264,0.027-0.209-0.164-0.202-0.305
			c0.007-0.149-0.099-0.381,0.21-0.361c0.117,0.008,0.13-0.065,0.126-0.156c-0.003-0.092,0-0.184,0-0.275
			c0-0.451,0-0.455,0.448-0.451c0.463,0.004,0.398-0.059,0.402,0.41c0.004,0.477,0,0.477,0.489,0.478
			c0.313,0.001,0.492,0.31,0.341,0.589c-0.064,0.119-0.181,0.066-0.275,0.068c-0.555,0.008-0.555,0.005-0.555,0.565
			c0,0.408-0.005,0.818,0.002,1.228c0.008,0.472,0.221,0.69,0.682,0.65C50.061,33.606,50.072,33.7,50.049,33.898z M52.771,34.202
			c-0.271,0.159-0.567,0.224-0.885,0.224c-0.392-0.004-0.758-0.115-1.115-0.275c-0.152-0.069-0.176-0.146-0.088-0.277
			c0.007-0.008,0.011-0.018,0.015-0.027c0.196-0.42,0.198-0.424,0.625-0.258c0.289,0.112,0.571,0.135,0.858-0.003
			c0.172-0.081,0.273-0.202,0.281-0.399c0.006-0.196-0.113-0.312-0.266-0.377c-0.232-0.101-0.479-0.17-0.721-0.25
			c-0.603-0.201-0.828-0.49-0.807-1.033c0.021-0.523,0.387-0.955,0.934-1.07c0.516-0.109,1.013-0.04,1.492,0.188
			c0.158,0.074,0.195,0.15,0.107,0.301c-0.046,0.078-0.082,0.165-0.109,0.252c-0.052,0.156-0.123,0.164-0.271,0.097
			c-0.299-0.136-0.613-0.229-0.947-0.108c-0.186,0.065-0.326,0.175-0.342,0.387c-0.018,0.216,0.135,0.307,0.303,0.372
			c0.275,0.106,0.557,0.2,0.832,0.306c0.424,0.16,0.674,0.462,0.688,0.92C53.37,33.62,53.167,33.969,52.771,34.202z M53.469,28.875
			c-0.045,0.069-0.146,0.063-0.228,0.062c-0.563-0.011-1.126-0.024-1.688-0.031c-0.129-0.002-0.199-0.063-0.262-0.172
			c-0.26-0.447-0.529-0.89-0.811-1.36c-0.254,0.236-0.411,0.535-0.541,0.825c-0.254,0.567-0.629,0.81-1.26,0.717
			c-0.371-0.055-0.756-0.011-1.135-0.013c-0.039,0-0.08-0.008-0.127-0.014c-0.021-0.131,0.067-0.207,0.129-0.293
			c0.58-0.818,1.155-1.642,1.746-2.453c0.139-0.189,0.127-0.317-0.006-0.503c-0.538-0.747-1.059-1.507-1.584-2.264
			c-0.038-0.055-0.107-0.113-0.064-0.189c0.043-0.073,0.129-0.05,0.197-0.05c0.531-0.002,1.063,0.006,1.596-0.002
			c0.185-0.003,0.279,0.096,0.36,0.233c0.179,0.296,0.354,0.594,0.536,0.888c0.112,0.179,0.221,0.267,0.366,0.01
			c0.181-0.317,0.397-0.612,0.587-0.926c0.091-0.15,0.204-0.208,0.376-0.206c0.49,0.007,0.981,0,1.474,0.006
			c0.075,0,0.182-0.031,0.225,0.056c0.047,0.095-0.034,0.167-0.088,0.241c-0.389,0.534-0.789,1.059-1.133,1.622
			c-0.021,0.029-0.043,0.059-0.063,0.087l0.001-0.006c-0.221,0.172-0.331,0.428-0.501,0.639c-0.093,0.113-0.056,0.229,0.076,0.303
			c0-0.001,0-0.002,0-0.002l0.002,0.003c-0.001-0.001-0.001-0.001-0.002-0.001c0.011,0.083,0.034,0.157,0.128,0.185
			c0.499,0.813,1.059,1.587,1.602,2.372C53.426,28.708,53.536,28.773,53.469,28.875z"/>
	</g>
</g>
<g>
	<g>
		<path d="M24.078,31.185c-0.655,0.003-1.18,0.554-1.18,1.242c0,0.67,0.518,1.211,1.165,1.215c0.688,0.005,1.23-0.541,1.222-1.229
			C25.277,31.745,24.725,31.182,24.078,31.185z"/>
	</g>
</g>
<g>
	<g>
		<path d="M28.059,32.273c-0.483,0.001-0.842,0.317-0.844,0.739c-0.003,0.435,0.36,0.75,0.865,0.752
			c0.509,0.002,0.855-0.303,0.853-0.75C28.93,32.583,28.563,32.271,28.059,32.273z"/>
	</g>
</g>
<g>
	<g>
		<path d="M41.361,31.275c-0.424,0.24-0.635,0.621-0.639,1.111c0,0.144,0.027,0.223,0.188,0.119
			c0.565-0.367,1.131-0.727,1.735-1.113C42.2,31.091,41.782,31.036,41.361,31.275z"/>
	</g>
</g>
<g>
	<g>
		<path d="M28.457,24.687c-0.406,0.276-0.654,0.794-0.591,1.188c0.654-0.408,1.302-0.813,2.011-1.255
			C29.35,24.396,28.888,24.395,28.457,24.687z"/>
	</g>
</g>
<g>
</g>
<g>
</g>
<g>
</g>
<g>
</g>
<g>
</g>
<g>
</g>
<g>
</g>
<g>
</g>
<g>
</g>
<g>
</g>
<g>
</g>
<g>
</g>
<g>
</g>
<g>
</g>
<g>
</g>
</svg>
