<?xml version="1.0" encoding="utf-8"?>
<!-- Generator: Adobe Illustrator 22.0.1, SVG Export Plug-In . SVG Version: 6.00 Build 0)  -->
<svg version="1.1" id="Layer_1" xmlns="http://www.w3.org/2000/svg" xmlns:xlink="http://www.w3.org/1999/xlink" x="0px" y="0px"
	 width="744px" height="156px" viewBox="0 0 744 156" enable-background="new 0 0 744 156" xml:space="preserve">
<g id="logo_2_">
	<g>
		<path fill="#282D69" d="M318.682,88.766h-52.474c1.854,8.555,7.701,13.831,15.4,13.831c5.276,0,11.407-1.283,15.258-8.27
			l20.247,4.135c-6.132,15.116-19.108,22.387-35.505,22.387c-20.676,0-37.787-15.258-37.787-37.93
			c0-22.528,17.111-37.928,37.93-37.928c20.247,0,36.504,14.543,36.931,37.928V88.766z M266.204,74.793h29.517
			c-2.139-7.7-7.843-11.264-14.402-11.264C274.902,63.528,268.344,67.52,266.204,74.793z"/>
		<path fill="#282D69" d="M409.106,82.919c0,22.672-15.97,37.93-34.934,37.93c-9.27,0-16.684-2.85-22.245-7.841v29.943h-22.815
			V47.13h22.815v5.703c5.561-4.991,12.976-7.841,22.245-7.841C393.137,44.991,409.106,60.391,409.106,82.919z M386.72,82.919
			c0-10.979-7.271-18.537-17.252-18.537c-9.27,0-17.54,7.558-17.54,18.537c0,11.123,8.27,18.537,17.54,18.537
			C379.449,101.456,386.72,94.042,386.72,82.919z"/>
		<path fill="#282D69" d="M444.19,26.025c0,7.273-5.561,12.69-13.261,12.69s-13.119-5.418-13.119-12.69
			c0-6.988,5.42-12.976,13.119-12.976S444.19,19.038,444.19,26.025z M419.522,118.71V47.13h22.814v71.581H419.522z"/>
		<path fill="#282D69" d="M507.175,88.339l20.961,4.562c-3.565,16.969-18.681,27.948-36.504,27.948
			c-21.39,0-39.071-15.258-39.071-37.93c0-22.528,17.681-37.928,39.071-37.928c17.396,0,32.51,10.694,36.504,27.519l-21.39,5.132
			c-1.997-8.697-7.841-12.69-15.114-12.69c-10.267,0-17.111,7.558-17.111,17.967c0,10.552,6.844,17.967,17.111,17.967
			C498.905,100.885,504.75,97.036,507.175,88.339z"/>
		<path fill="#282D69" d="M652.808,73.652v45.059h-14.687V76.646c0-10.408-6.844-16.969-15.97-16.969
			c-11.549,0-19.107,8.129-19.107,23.957v35.077h-14.829V76.646c0-10.408-6.844-16.969-15.97-16.969
			c-11.408,0-18.822,8.129-18.822,23.957v35.077h-14.831V47.985h14.831v7.985c5.132-6.273,12.547-9.982,22.672-9.982
			c10.123,0,18.964,4.706,23.528,12.976c5.703-7.985,14.685-12.976,26.378-12.976C640.688,45.989,652.808,56.968,652.808,73.652z"/>
		<path fill="#282D69" d="M738.58,118.71h-14.972v-7.985c-6.276,6.273-14.972,9.982-25.666,9.982
			c-18.396,0-35.08-14.972-35.08-37.359c0-22.245,16.684-37.359,35.08-37.359c10.694,0,19.391,3.708,25.666,10.123V16.044h14.972
			V118.71z M723.703,83.348c0-14.829-11.408-24.24-23.243-24.24c-12.834,0-22.957,9.411-22.957,24.24
			c0,14.972,10.123,24.24,22.957,24.24C712.295,107.588,723.703,98.32,723.703,83.348z"/>
	</g>
	<g>
		<g>
			<path fill="#282D69" d="M91.699,39.296L70.278,19.32C54.756,4.846,30.213,5.703,15.738,21.225l0,0
				c-0.05,0.054-0.095,0.11-0.145,0.163C1.274,36.919,2.174,61.34,17.643,75.765L37.45,94.236L94.033,147l0.194-0.181
				c12.929-13.696,20.858-32.163,20.858-52.485C115.085,72.721,106.115,53.204,91.699,39.296z"/>
		</g>
		<g>
			<path fill="#71CBCC" d="M172.517,21.389c-0.049-0.054-0.095-0.11-0.145-0.163l0,0c-14.475-15.522-39.018-16.379-54.54-1.904
				l-16.681,15.555c15.646,14.003,25.495,34.349,25.495,56.998c0,10.946-2.305,21.352-6.447,30.767l30.461-28.405l19.808-18.471
				C185.937,61.34,186.837,36.919,172.517,21.389z"/>
		</g>
	</g>
</g>
</svg>
